<?xml version="1.0" encoding="utf-8"?>
<!-- Generator: Adobe Illustrator 27.5.0, SVG Export Plug-In . SVG Version: 6.00 Build 0)  -->
<svg version="1.1" id="Layer_1" xmlns="http://www.w3.org/2000/svg" xmlns:xlink="http://www.w3.org/1999/xlink" x="0px" y="0px"
	 viewBox="0 0 2000 2000" style="enable-background:new 0 0 2000 2000;" xml:space="preserve">
<rect style="fill:none" width="2000" height="2000"/>
<g>
	<g>
		<path style="fill:#f9f4efff;" stroke="#f9f4efff"
            stroke-width="42"
            stroke-linejoin="round" d="M1836.747,927.097c11.614,78.838,82.356,122.48,51.031,219.97
			c-20.764,64.759-92.915,87.986-130.924,139.723c-6.334,71.095,38.715,131.279-1.759,205.891
			c-41.884,76.373-120.719,68.982-176.68,116.144c-54.551,58.423-44.698,141.132-140.429,177.381
			c-63.701,23.933-126.701-17.949-190.756-15.484c-59.478,39.417-78.484,112.27-162.249,127.053
			c-85.875,15.134-129.166-51.385-200.962-65.814c-73.206-5.632-133.038,46.456-211.524,8.798
			c-76.371-36.954-74.612-112.272-121.423-166.472c-68.276-22.174-136.907,8.446-200.61-47.514
			c-65.111-58.071-40.474-133.038-73.909-198.5c-41.18-60.535-118.96-74.964-138.67-159.784
			c-18.652-82.71,41.18-128.462,54.553-198.852c-25.34-66.872-91.86-101.715-87.988-186.535
			c4.927-86.931,78.838-114.383,109.104-181.253c21.82-70.04-15.486-140.077,38.716-208.004
			c53.144-66.518,125.998-48.217,189.347-81.3c40.123-67.221,19.006-143.243,104.882-194.276
			c60.184-35.545,131.63-2.462,195.685-19.004c61.591-23.933,100.656-92.563,170.344-98.548
			c99.601-8.798,126.702,65.462,198.148,96.786c71.093-9.854,119.662-67.221,201.314-44.346
			c83.765,23.933,94.324,102.419,152.747,146.411c57.016,33.437,135.148,21.119,183.365,71.446
			c68.278,72.15,28.156,141.132,47.866,215.393c56.664,53.85,135.502,50.33,166.12,145.355
			C1883.203,798.285,1834.986,860.931,1836.747,927.097z"/>
	</g>
</g>
</svg>
