<?xml version="1.0" encoding="UTF-8" standalone="no"?>
<svg
   version="1.1"
   id="Layer_1"
   x="0px"
   y="0px"
   width="100%"
   viewBox="0 0 500 500"
   enable-background="new 0 0 500 500"
   xml:space="preserve"
   sodipodi:docname="Brown Cute Cookies Logo.svg"
   inkscape:version="1.4 (e7c3feb1, 2024-10-09)"
   xmlns:inkscape="http://www.inkscape.org/namespaces/inkscape"
   xmlns:sodipodi="http://sodipodi.sourceforge.net/DTD/sodipodi-0.dtd"
   xmlns="http://www.w3.org/2000/svg"
   xmlns:svg="http://www.w3.org/2000/svg"><defs
   id="defs50" /><sodipodi:namedview
   id="namedview50"
   pagecolor="#505050"
   bordercolor="#eeeeee"
   borderopacity="1"
   inkscape:showpageshadow="0"
   inkscape:pageopacity="0"
   inkscape:pagecheckerboard="0"
   inkscape:deskcolor="#505050"
   inkscape:zoom="1.1766257"
   inkscape:cx="190.79985"
   inkscape:cy="239.6684"
   inkscape:window-width="1800"
   inkscape:window-height="1021"
   inkscape:window-x="2560"
   inkscape:window-y="44"
   inkscape:window-maximized="1"
   inkscape:current-layer="Layer_1" />

<ellipse
   style="fill:#faf2df;fill-opacity:1;stroke:none;stroke-width:3.09326;stroke-miterlimit:0;stroke-opacity:0.398678"
   id="path51"
   cx="249.44212"
   cy="250.29201"
   rx="243.52228"
   ry="246.07195" /><path
   fill="#bf6d36"
   opacity="1"
   stroke="none"
   d="m 210.79179,172.55883 c 7.6443,-5.60838 16.29506,-8.83395 25.60917,-9.26546 11.30122,-0.52358 22.64588,-0.24647 33.96736,-0.0534 2.70301,0.0461 36.10016,18.15036 37.55434,20.4489 2.60561,4.11851 5.52785,8.39996 6.63792,13.02496 1.41795,5.90769 3.6464,10.43267 9.05365,13.39786 5.89189,3.23094 7.9824,8.96693 8.91047,15.29852 0.72264,4.92998 1.52684,9.84774 2.14417,15.58405 -4.07951,11.06718 -8.00833,21.32123 -11.96789,31.14068 -0.0314,-1.43267 -9.9e-4,-2.43187 -0.0382,-3.42851 -0.2353,-6.31065 -4.50235,-11.67121 -10.32539,-12.99355 -5.7997,-1.31708 -11.5245,1.37254 -14.70219,6.63713 -5.16026,8.54921 -0.291,23.27589 14.00157,21.77833 -0.9393,1.01616 -1.80544,1.70594 -2.67629,2.38953 -6.33701,4.97448 -14.2303,1.87674 -21.41923,4.01205 -2.67138,-0.45104 -5.11978,-1.36509 -7.33114,-0.95949 -5.57892,1.02323 -7.42029,4.81691 -7.42045,13.0142 -4.21334,-0.85676 -8.51103,-0.83735 -11.64969,-2.75494 -7.12341,-4.3522 -14.86457,-5.96097 -22.80866,-7.27501 -10.41678,-1.72301 -18.10417,-6.68295 -20.76941,-17.72006 -0.89442,-3.70384 -1.55529,-7.55909 -3.10575,-10.98319 -1.87141,-4.13296 -3.72409,-9.01824 -7.07875,-11.58212 -9.99659,-7.64017 -12.97846,-15.07703 -8.78906,-29.75647 1.7023,-5.96486 3.60496,-12.51616 2.78285,-18.42658 -1.36618,-9.82172 0.15399,-18.01423 6.57244,-25.47042 1.39834,-1.62444 1.92182,-4.0178 2.84822,-6.05702 m 53.72544,11.96791 c -7.25628,-1.27793 -13.53179,1.26524 -16.62241,6.73626 -2.70252,4.78396 -2.26232,11.29244 1.04549,15.45901 3.95144,4.97729 10.27042,6.90357 16.38288,4.99414 6.01773,-1.87981 9.44031,-5.94038 9.8354,-11.66871 0.52334,-7.58758 -2.1689,-11.77387 -10.64136,-15.5207 m -6.12663,-13.51247 c -7.78632,-3.61781 -15.02279,-3.10457 -21.17745,3.3173 -1.26381,1.31869 -1.66811,3.4785 -2.46861,5.25062 2.04702,0.25906 4.37506,1.27808 6.08724,0.63164 4.7248,-1.78396 9.07476,-2.79977 14.22208,-1.07319 4.55903,1.52927 9.60653,1.52343 14.40027,2.40649 2.46314,0.45373 4.80715,1.69964 7.27172,1.97241 2.04989,0.22687 4.40986,-0.0276 6.18349,-0.9502 0.60304,-0.31368 0.39814,-3.64901 -0.406,-5.02631 -2.68801,-4.60392 -7.26311,-5.75147 -12.2349,-5.84645 -3.70427,-0.0707 -7.40657,-0.24825 -11.87784,-0.68231 m -14.58614,98.65676 c 5.568,6.10244 12.30547,7.51371 19.74693,4.41747 6.54408,-2.72288 9.92571,-8.26447 10.22047,-15.18224 0.0946,-2.22221 -2.27311,-4.55155 -3.51434,-6.83187 -0.9665,1.96596 -1.94766,3.92483 -2.88243,5.90604 -0.12879,0.27298 -0.0121,0.65784 -0.0352,0.98905 -0.50828,7.3131 -7.22354,12.51176 -13.79172,9.62281 -3.88776,-1.70998 -6.72003,-5.82205 -10.11909,-8.74452 -0.98974,-0.85093 -2.29719,-1.32462 -3.459,-1.97123 -0.26544,1.34164 -1.10706,2.91979 -0.68176,3.97795 1.02829,2.55837 2.64775,4.8741 4.51609,7.81654 m -31.39988,-62.10326 c -6.3711,1.5021 -10.08955,5.92155 -9.51555,11.30947 0.61825,5.80354 4.18407,9.53584 9.35533,9.79216 6.24895,0.30974 10.91207,-3.46312 11.3829,-9.20973 0.53383,-6.51547 -3.28239,-10.87196 -11.22268,-11.8919 m 100.163,19.82706 c 0.0651,-0.9949 0.24739,-1.99852 0.17526,-2.98315 -0.30385,-4.14623 -2.52257,-6.80454 -6.48798,-7.75608 -4.06498,-0.97543 -9.98292,1.46039 -11.60178,4.90356 -1.8081,3.84569 -1.16015,7.40157 2.0066,10.41767 4.82396,4.59445 10.14345,3.31006 15.9079,-4.582 m -86.52131,5.89511 c -4.56512,3.71993 -6.61037,8.83003 -4.9027,12.989 0.50508,1.2302 1.83319,2.11533 2.78417,3.1586 0.92297,-1.01342 2.22766,-1.87015 2.70818,-3.06522 3.66708,-9.12018 3.61711,-9.14076 10.18251,-2.56247 0.11677,0.117 0.21449,0.32139 0.34592,0.34521 1.64638,0.29812 3.82359,1.32872 4.79979,0.63701 0.98451,-0.69763 1.43085,-3.32199 0.98346,-4.73773 -2.25754,-7.14345 -9.35042,-10.15149 -16.90133,-6.7644 m 31.28138,1.82711 c 1.01321,1.48755 2.02641,2.97508 3.03962,4.46262 0.94751,-1.44731 1.82655,-2.9467 2.85787,-4.33021 1.7085,-2.29182 3.51503,-4.50899 5.28021,-6.75763 1.71048,1.73788 3.4933,3.41132 5.09514,5.24605 0.62226,0.71269 0.60016,2.10596 1.28851,2.62982 1.16795,0.88888 2.66659,1.33408 4.02624,1.96575 0.55558,-1.42433 1.90741,-3.14593 1.51589,-4.21666 -1.12634,-3.08036 -2.6917,-6.08729 -4.57192,-8.77498 -2.99534,-4.2817 -7.17168,-5.2321 -11.04679,-1.69926 -3.12175,2.84601 -5.00788,7.07587 -7.48477,11.4745 m -34.11048,-35.51963 c 2.23589,1.46087 3.5675,0.91169 3.15613,-1.83351 -0.48535,-3.23897 -1.26188,-6.44918 -2.1609,-9.59941 -0.26917,-0.94305 -1.3181,-2.21742 -2.1072,-2.29233 -0.77838,-0.0738 -2.0214,1.00055 -2.4706,1.87916 -2.37003,4.6355 -0.44362,8.22978 3.58257,11.84609 m 100.27409,27.67483 c -2.11482,-1.44818 -4.22961,-2.89636 -6.3444,-4.34453 -0.34969,2.09919 -1.50606,4.54127 -0.81615,6.19854 0.6549,1.57314 3.24246,2.32479 4.98014,3.43766 0.82674,-1.54007 1.65344,-3.08015 2.18041,-5.29167 M 293.3345,192.19475 c 2.97207,-1.10043 3.6487,-3.29613 1.27259,-5.16445 -1.65367,-1.30028 -4.30627,-1.30336 -6.51263,-1.88594 0.61741,1.94693 1.05771,3.98215 1.94271,5.79579 0.3366,0.6898 1.69516,0.87045 3.29733,1.2546 z"
   id="path2"
   style="stroke-width:0.995457" />
<path
   fill="#b45820"
   opacity="1"
   stroke="none"
   d="m 287.87208,290.66781 c 6.85804,-2.27318 14.75133,0.82455 21.08834,-4.14993 0.87085,-0.68359 1.73699,-1.37337 3.02155,-2.49807 6.17052,-1.89556 9.02745,-6.12932 10.74972,-11.45021 3.92885,-10.25409 7.85767,-20.50815 11.8372,-31.19362 7.29376,7.26857 9.45384,15.61134 3.60584,25.24216 -2.71356,4.46883 -4.32405,9.30512 -2.78425,14.71703 0.30671,1.07806 0.3826,2.44076 0.0101,3.46576 -4.87656,13.39491 -9.43342,26.98819 -23.23581,34.29811 -2.65448,1.40584 -5.76641,3.3325 -6.97821,5.84932 -3.40284,7.06719 -9.23184,9.19508 -16.15624,10.65127 -5.19092,1.09162 -10.67169,2.5501 -15.05608,5.37711 -6.96661,4.49193 -13.78548,5.21037 -21.61757,3.48354 -4.5317,-0.99919 -9.54562,-1.23374 -14.08546,-0.39384 -7.40795,1.37055 -13.56627,-0.20766 -18.21533,-5.92929 -4.72443,-5.81442 -9.9237,-9.32493 -17.79677,-8.33615 -4.92037,0.61796 -7.90179,-3.02893 -9.7146,-7.13495 -2.33907,-5.29809 -5.84223,-8.99588 -11.25179,-11.12236 -6.16984,-2.42536 -8.939,-7.95355 -9.99525,-13.94221 -1.89946,-10.76924 -5.54935,-20.69635 -10.96876,-30.15356 -4.52901,-7.90344 -5.04213,-16.13015 0.80773,-23.83601 5.02155,-6.6148 3.86446,-14.58777 4.82132,-22.05044 0.88609,-6.91063 3.39455,-12.20509 9.88725,-15.52848 1.92703,-0.98639 3.69629,-3.8832 4.02762,-6.13187 0.73881,-5.0136 3.11684,-8.59894 7.55341,-10.23996 9.25273,-3.42241 16.50142,-9.38497 23.05478,-16.97303 -0.6148,1.90992 -1.13828,4.30328 -2.53662,5.92772 -6.41845,7.45618 -7.93862,15.6487 -6.57244,25.47042 0.82211,5.91042 -1.08055,12.46173 -2.78286,18.42658 -4.18939,14.67944 -1.20752,22.11629 8.78907,29.75647 3.35466,2.56388 5.20734,7.44916 7.07875,11.58211 1.55046,3.42411 2.21133,7.27936 3.10574,10.9832 2.66525,11.03711 10.35264,15.99705 20.76942,17.72006 7.94409,1.31404 15.68525,2.92281 22.80866,7.275 3.13866,1.9176 7.43635,1.89819 11.91087,2.9666 2.87372,1.75766 4.85448,4.08813 7.25688,4.68459 4.27753,1.06198 7.9209,-0.55497 10.20632,-4.82575 2.61537,-4.88739 0.41321,-8.48436 -2.64191,-11.98732 m -45.55046,8.9679 c -1.49514,1.01215 -3.1682,1.83495 -4.45447,3.06933 -5.5011,5.27928 -5.85074,13.11426 -0.97889,18.84448 4.6562,5.47659 12.30453,6.39953 18.22626,2.1993 5.39135,-3.82401 7.31773,-10.67487 4.71674,-16.77423 -2.74425,-6.43534 -9.29422,-9.40947 -17.50964,-7.33888 m -56.98157,-33.01394 c -3.40885,5.26526 -2.87184,10.48574 0.719,15.27149 3.03737,4.04811 7.10526,6.39109 12.4406,5.25274 6.10295,-1.30218 10.68219,-5.83319 11.20998,-11.0742 0.60856,-6.04295 -2.23127,-11.86421 -6.74466,-13.82583 -7.17299,-3.11745 -12.03284,-2.05434 -17.62492,4.3758 M 178.317,244.52162 c 1.2282,-1.69396 3.52785,-3.4202 3.47897,-5.07568 -0.13413,-4.54369 1.13011,-7.92354 4.52459,-10.94569 1.62025,-1.44258 2.85127,-3.81826 3.3175,-5.97867 0.63144,-2.926 1.21869,-6.42427 -3.94258,-7.97003 0.69649,7.07789 -5.25157,9.01636 -8.86103,12.92515 -1.76723,1.91379 -3.67378,5.07913 -3.30325,7.301 0.5535,3.31884 -1.81129,8.48823 4.7858,9.74392 m 85.48949,88.29552 c 3.66806,-1.68315 7.24718,-2.34255 11.30908,-0.80853 3.27104,1.23531 6.90308,0.5183 8.06688,-3.2686 0.45125,-1.46847 -1.01898,-4.54464 -2.47996,-5.43136 -5.78208,-3.50923 -16.06248,-1.72018 -20.91408,3.41126 -1.19448,1.26336 -1.53992,3.34636 -2.27565,5.05259 1.85712,0.46307 3.71423,0.92618 6.29373,1.04464 z"
   id="path3"
   style="stroke-width:0.995457" />
<path
   fill="#d67919"
   opacity="1"
   stroke="none"
   d="m 202.4962,15.216158 c 87.30625,-18.0145722 171.0205,17.945961 216.59361,67.668752 -2.26499,3.214307 -4.33755,4.166392 -7.73022,0.89527 C 387.83391,61.096937 361.1995,43.258196 330.60312,31.77758 308.05333,23.316266 284.81766,18.380036 260.71269,17.19226 207.33891,14.562257 158.72842,28.870869 115.57477,60.246065 61.053575,99.886116 28.736616,153.77525 19.935018,221.26872 c -6.627646,50.82291 3.073294,98.77812 27.652431,143.60226 1.923558,3.50794 2.227926,5.77349 -2.40969,7.61927 -0.879413,-1.27161 -1.99641,-2.62485 -2.834023,-4.13622 C 20.279595,328.54301 10.031652,285.76345 12.386533,240.25801 16.461323,161.51728 50.620278,99.031102 114.03726,53.222642 140.49971,34.107825 170.18979,21.913916 202.4962,15.216158 Z"
   id="path4"
   style="stroke-width:0.995457" />
<path
   fill="#d67a1a"
   opacity="1"
   stroke="none"
   d="M 386.27698,92.187286 C 352.50727,62.56968 313.61387,45.141399 269.58746,40.70626 c -43.07095,-4.338896 -84.01492,3.952901 -122.11062,25.256219 -2.85469,1.596351 -5.89724,3.959004 -8.20064,-2.069791 55.74738,-31.752986 114.63497,-39.689698 175.17613,-18.99796 85.37501,29.179438 135.21802,90.810232 147.19369,180.806392 9.31857,70.02838 -14.08867,130.34274 -62.39903,181.05512 -5.26012,-3.55201 -2.89011,-5.99369 -0.24711,-8.76248 29.92902,-31.35365 49.19501,-68.49701 55.96796,-111.43448 9.76515,-61.90623 -4.31531,-118.13492 -43.26448,-167.34177 -7.58418,-9.58156 -16.7345,-17.89736 -25.42638,-27.030224 z"
   id="path5"
   style="stroke-width:0.995457" />
<path
   fill="#d67a1a"
   opacity="1"
   stroke="none"
   d="m 207.55625,487.03843 c -1.36974,-0.22342 -2.33516,-0.36618 -3.52353,-0.54193 0.25658,-4.49026 1.96055,-6.30789 6.55088,-5.54598 52.69241,8.74627 102.87168,1.20618 149.57499,-25.32035 61.07562,-34.68966 99.57317,-86.8167 115.40911,-155.88009 0.92882,-4.05066 1.28316,-8.26103 2.50053,-12.20957 0.73129,-2.37199 2.61812,-4.3802 3.98563,-6.55192 0.61284,0.2145 1.2257,0.42896 1.83855,0.64346 0,2.16967 0.33235,4.4008 -0.0478,6.50019 -17.45326,96.39711 -73.01625,159.80714 -163.95132,191.89024 -25.89115,9.13477 -53.09663,11.71413 -80.48792,10.46083 -10.5103,-0.48092 -20.96486,-2.20609 -31.84915,-3.44488 z"
   id="path6"
   style="stroke-width:0.995457" />
<path
   fill="#d77a1b"
   opacity="1"
   stroke="none"
   d="M 104.50374,412.94318 C 70.473626,380.71176 47.829906,342.2246 38.004914,296.34367 c -6.227233,-29.08001 -5.600652,-58.24158 -0.353531,-87.39359 0.07735,-0.42977 0.441171,-0.80688 0.855596,-1.53028 2.678554,2.65812 4.259457,5.15906 3.64449,9.13949 -13.595984,88.00078 25.06795,171.33152 100.591701,217.03416 16.64245,10.07107 34.18121,17.98415 53.19481,22.22013 3.93527,0.87671 4.80185,2.85188 3.06349,7.10519 -35.07713,-9.48336 -67.12028,-24.75813 -94.49773,-49.97559 z"
   id="path7"
   style="stroke-width:0.995457" />
<path
   fill="#47280e"
   opacity="1"
   stroke="none"
   d="m 178.90944,162.7319 c -1.13193,-1.13561 -2.84668,-2.0715 -3.30524,-3.43786 -4.37444,-13.03438 -8.5503,-26.13703 -12.73305,-39.23644 -0.34774,-1.089 -0.74063,-2.44919 -0.3908,-3.417 0.62445,-1.72747 1.49096,-4.11147 2.83688,-4.60536 1.21111,-0.44443 3.89307,0.83433 4.70808,2.1334 1.90041,3.02907 3.1951,6.47767 4.49232,9.85166 1.04301,2.71293 2.14669,3.97899 5.43291,2.83097 5.85712,-2.04613 11.92083,-3.48848 18.21855,-5.27415 -0.97394,-4.90887 -1.89972,-9.42092 -2.74794,-13.94784 -0.24238,-1.29355 -0.65736,-2.76372 -0.27913,-3.91295 0.46529,-1.41389 1.45946,-3.26578 2.63206,-3.6457 1.08019,-0.349987 3.15645,0.63108 3.98135,1.67897 1.49761,1.90246 2.69119,4.18421 3.48884,6.49216 4.69835,13.59413 9.33434,27.21251 13.73144,40.9079 0.54483,1.69702 0.19714,4.86122 -0.90119,5.61614 -1.28708,0.88472 -4.37103,0.57707 -5.74132,-0.46625 -2.3724,-1.80627 -4.54763,-4.31803 -5.85511,-7.00592 -1.86707,-3.83829 -2.87773,-8.10192 -4.47575,-12.8852 -1.22473,-1.44187 -2.42753,-2.99132 -3.19969,-2.79668 -6.91629,1.74363 -13.75678,3.79429 -20.72901,5.7859 1.85671,6.69223 3.60414,12.7114 5.1805,18.77598 0.96038,3.6948 -0.16771,6.21889 -4.3447,6.55827 z"
   id="path8"
   style="stroke-width:0.995457" />
<path
   fill="#45260c"
   opacity="1"
   stroke="none"
   d="m 248.3991,117.42558 c 3.56175,-0.29785 7.15639,-1.01707 10.67299,-0.73669 2.13442,0.17015 4.1482,1.88565 6.33418,3.65158 -0.62098,5.52939 -4.39108,5.82586 -7.98121,6.18984 -4.31617,0.43756 -8.65264,0.67047 -13.24678,1.01178 0,2.71304 -0.42127,4.95689 0.14118,6.91173 0.40662,1.41316 2.11995,2.44245 3.2505,3.64294 3.54774,-0.51329 7.10406,-0.97334 10.64071,-1.55542 3.28245,-0.54024 6.25036,-0.47422 7.83998,3.85876 -2.25716,2.88072 -4.22721,6.39904 -6.88583,7.05119 -6.10783,1.49828 -12.55102,1.60058 -18.8581,2.26951 -7.80663,-3.97919 -8.84071,-11.22133 -8.08968,-18.72608 1.0219,-10.21122 2.50571,-20.40268 4.47206,-30.46682 0.39471,-2.020157 3.61203,-4.36047 5.92189,-4.93447 5.06563,-1.258804 10.38247,-1.490188 15.59886,-2.123262 3.8296,-0.464774 6.72615,0.979241 8.73456,5.047891 -0.42512,5.065161 -3.20768,6.946091 -7.27387,7.114541 -3.10855,0.12877 -6.2569,0.211 -9.33724,-0.13862 -3.78901,-0.43004 -5.60454,0.80663 -5.35983,4.80439 0.0904,1.47678 -0.13842,2.97469 -0.23731,4.46189 -0.1914,2.87804 1.2277,3.48091 3.66294,2.66532 z"
   id="path9"
   style="stroke-width:0.995457" />
<path
   fill="#46260c"
   opacity="1"
   stroke="none"
   d="m 302.56581,158.09699 c -5.03169,-3.06678 -5.78935,-5.06762 -4.0108,-10.65893 0.30112,-0.94663 0.5836,-1.9115 1.0058,-2.80468 2.95353,-6.24851 2.78384,-11.54417 -0.49135,-18.41773 -3.45618,-7.25337 -3.24654,-16.35444 -4.19269,-24.6999 -0.15296,-1.349 1.78093,-3.836445 3.17001,-4.21192 1.35805,-0.367107 4.09784,0.8512 4.76044,2.143515 2.39372,4.668685 4.22654,9.638245 6.14979,14.542775 0.87246,2.22474 1.46049,4.56337 2.41899,7.62044 5.17809,-3.84846 9.6041,-7.2234 14.12189,-10.46783 3.43904,-2.46972 6.68074,-2.78702 9.20367,2.16488 -2.0166,3.30617 -3.627,6.63546 -6.26423,8.37685 -10.55791,6.97148 -18.73564,15.26241 -18.9294,29.02326 -0.002,0.1581 -0.10307,0.31276 -0.1443,0.47263 -0.93809,3.63859 -2.88494,6.26373 -6.79782,6.91664 z"
   id="path10"
   style="stroke-width:0.995457" />
<path
   fill="#48290f"
   opacity="1"
   stroke="none"
   d="m 213.81423,376.83865 c -7.77178,10.86872 -19.58641,12.96286 -28.9398,5.38731 -7.18986,-5.82323 -9.06144,-13.9491 -5.14478,-22.33703 4.16166,-8.91251 13.09088,-13.36119 22.45727,-11.18857 7.24501,1.68054 14.02446,10.64859 13.709,18.70087 -0.12017,3.06764 -1.21913,6.09618 -2.08169,9.43742 m -16.29234,-1.503 c 1.6476,-1.08311 3.34544,-2.09649 4.93186,-3.26443 2.9059,-2.13929 4.37802,-5.42382 2.09881,-8.17655 -2.44451,-2.95241 -5.9256,-6.12768 -9.41419,-6.81203 -4.09867,-0.80398 -8.58926,6.85465 -7.97459,11.95877 0.59273,4.92176 3.69717,7.04223 10.35811,6.29424 z"
   id="path11"
   style="stroke-width:0.995457" />
<path
   fill="#47280e"
   opacity="1"
   stroke="none"
   d="m 245.50697,396.86828 c -11.68073,-1.34678 -18.56601,-7.78922 -19.1502,-17.53974 -0.60663,-10.12513 5.25024,-18.73254 14.3969,-21.15808 6.81974,-1.80847 15.26605,1.53014 19.45772,7.6911 4.28762,6.30204 4.59034,15.98336 0.36369,21.61992 -3.68507,4.9144 -7.43927,9.98954 -15.06811,9.3868 m 0.98811,-11.34475 c 1.73299,-1.94212 3.59179,-3.78635 5.16634,-5.85183 1.86149,-2.44189 2.70837,-5.75341 0.0828,-7.56722 -3.34502,-2.31075 -7.41823,-4.45938 -11.32015,-4.75488 -3.35597,-0.25411 -6.06788,8.62966 -4.62342,13.30893 1.44813,4.69119 4.64935,6.33413 10.69449,4.865 z"
   id="path12"
   style="stroke-width:0.995457" />
<path
   fill="#48290f"
   opacity="1"
   stroke="none"
   d="m 173.69862,340.66706 c -1.70884,-1.42235 -3.37926,-2.56592 -4.44525,-4.13008 -3.67489,-5.39227 -6.63562,-6.93769 -12.98493,-5.50687 -5.35225,1.20613 -9.95853,3.85472 -11.51196,9.6731 -1.35087,5.0598 1.10861,10.08831 6.31742,13.48118 2.33748,1.52258 5.29138,2.30503 7.19466,4.20984 1.50388,1.50514 1.82965,4.21223 2.67861,6.38554 -1.92858,0.45323 -3.99851,1.60748 -5.7625,1.24439 -10.38925,-2.13856 -17.40634,-8.52319 -20.41172,-18.74288 -3.53238,-12.01178 5.11336,-24.00491 18.06406,-25.70924 12.1592,-1.60017 21.2838,3.78361 23.16692,13.9572 0.32178,1.73838 2.19452,4.89602 -2.30531,5.13782 z"
   id="path13"
   style="stroke-width:0.995457" />
<path
   fill="#492a10"
   opacity="1"
   stroke="none"
   d="m 291.5945,369.92568 c 3.92876,1.64851 7.86171,3.28695 11.78401,4.95096 1.36168,0.57768 3.25147,0.8531 3.93105,1.90549 1.49821,2.32011 2.38011,5.04663 3.51348,7.6073 -2.25733,0.47553 -4.83541,1.89106 -6.70798,1.23876 -4.4494,-1.55 -8.57549,-4.05772 -12.80916,-6.22448 -1.40182,-0.71745 -2.73306,-1.57554 -5.52632,-3.20178 1.16313,4.77996 2.11511,8.01976 2.68024,11.32704 0.24536,1.43584 0.20818,3.68448 -0.63358,4.33911 -0.90438,0.70331 -3.29744,0.51108 -4.33705,-0.25972 -1.75177,-1.2988 -3.58492,-3.14131 -4.26621,-5.14342 -2.77638,-8.15923 -5.26656,-16.42783 -7.51052,-24.75291 -0.40583,-1.50563 0.84034,-3.46588 1.32381,-5.21622 1.51925,0.92773 3.42517,1.54205 4.46807,2.85584 1.60302,2.01948 2.61323,4.51944 4.37376,7.72326 3.23886,-5.5043 6.04963,-10.4531 9.03035,-15.29505 2.62532,-4.26463 4.52571,-4.43265 7.94757,-0.29786 -2.84971,5.2965 -5.67161,9.93057 -8.5758,14.51145 -1.24723,1.96729 -2.10596,3.63482 1.31428,3.93223 z"
   id="path14"
   style="stroke-width:0.995457" />
<path
   fill="#47280e"
   opacity="1"
   stroke="none"
   d="m 338.39583,332.69303 c 1.04897,1.23115 2.09792,2.46231 3.32417,3.90153 2.57726,-2.89178 4.91127,-5.7169 7.46956,-8.31665 2.09438,-2.12835 4.27592,-2.2178 6.05508,1.2681 -2.7291,4.67539 -5.48204,8.68189 -8.48121,13.04674 0.54075,0.51441 1.44505,1.37465 2.34936,2.23492 1.72944,2.55597 3.50478,2.72737 5.37295,0.13438 1.44607,-2.00712 2.87917,-4.02657 4.4,-5.97523 2.01874,-2.58665 4.16362,-3.14788 6.47597,0.56708 -0.87587,9.61243 -6.08443,14.81071 -14.20606,17.46297 -3.70094,-2.91044 -7.91746,-5.35855 -10.97792,-8.84332 -4.23693,-4.82419 -7.88585,-10.25823 -11.16609,-15.80576 -0.94224,-1.59347 -0.40293,-4.85203 0.61775,-6.68848 1.74981,-3.14815 4.29476,-5.8862 6.72254,-8.59833 3.36127,-3.7549 5.75817,-3.49699 9.04302,1.32202 -2.47841,3.51576 -4.74977,6.51351 -7.31119,9.23218 -1.88021,1.99563 -2.39367,3.52923 0.31207,5.05785 z"
   id="path15"
   style="stroke-width:0.995457" />
<path
   fill="#48290f"
   opacity="1"
   stroke="none"
   d="m 321.28687,344.97847 c 4.01597,7.64175 7.94844,14.93265 11.50429,22.40652 0.69978,1.47086 -0.0539,3.64774 -0.13724,5.49901 -1.82796,-0.2588 -3.74171,-0.26659 -5.45391,-0.86406 -1.15472,-0.40285 -2.32663,-1.45276 -2.97421,-2.53025 -4.59816,-7.65133 -9.26886,-15.27467 -13.39821,-23.18326 -0.83512,-1.59934 0.53789,-4.37585 0.89297,-6.60967 2.15654,0.52692 4.44374,0.76697 6.42153,1.68652 1.22028,0.56736 1.96901,2.17034 3.14478,3.59519 z"
   id="path16"
   style="stroke-width:0.995457" />
<path
   fill="#af9f88"
   opacity="1"
   stroke="none"
   d="m 302.65366,158.43814 c 3.82503,-0.99406 5.77188,-3.6192 6.70997,-7.25779 0.0412,-0.15987 0.1421,-0.31453 0.1443,-0.47263 0.19376,-13.76085 8.37149,-22.05178 18.9294,-29.02326 2.63723,-1.74139 4.24763,-5.07068 6.43328,-8.04935 4.19292,2.56982 4.4421,4.79915 0.57088,8.14254 -4.25446,3.67443 -8.55337,7.38216 -13.24247,10.43244 -4.57755,2.9777 -6.74924,6.90056 -7.53211,12.16038 -0.58385,3.92257 -1.47535,7.87305 -2.83509,11.5847 -1.82211,4.97382 -4.80866,5.71302 -9.17816,2.48297 z"
   id="path17"
   style="stroke-width:0.995457" />
<path
   fill="#ae9e87"
   opacity="1"
   stroke="none"
   d="m 179.00105,163.07973 c 4.08538,-0.68721 5.21347,-3.2113 4.25309,-6.9061 -1.57636,-6.06458 -3.32379,-12.08375 -5.1805,-18.77598 6.97223,-1.99161 13.81272,-4.04227 20.72901,-5.7859 0.77216,-0.19464 1.97496,1.35481 2.99236,2.49325 -6.72472,2.31107 -13.46378,4.22433 -20.65737,6.26662 1.80308,6.61271 3.69954,12.72194 5.01785,18.95598 0.36129,1.70849 -0.48469,4.50917 -1.76117,5.46209 -0.92848,0.69314 -3.476,-0.82815 -5.39327,-1.70996 z"
   id="path18"
   style="stroke-width:0.995457" />
<path
   fill="#ae9d86"
   opacity="1"
   stroke="none"
   d="m 248.34613,116.994 c -2.38227,1.24717 -3.80137,0.6443 -3.60997,-2.23374 0.0989,-1.4872 0.3277,-2.98511 0.23731,-4.46189 -0.24471,-3.99776 1.57082,-5.23443 5.35983,-4.80439 3.08034,0.34962 6.22869,0.26739 9.33724,0.13862 4.06619,-0.16845 6.84875,-2.04938 7.45683,-6.820113 4.239,3.099783 3.90687,7.676493 -1.03226,9.334793 -3.14838,1.05706 -6.74065,1.1069 -10.12298,1.04052 -7.72716,-0.15168 -7.72445,-0.29341 -7.626,7.8062 z"
   id="path19"
   style="stroke-width:0.995457" />
<path
   fill="#af9e88"
   opacity="1"
   stroke="none"
   d="m 240.38198,150.07416 c 6.23182,-1.02229 12.67501,-1.12459 18.78284,-2.62287 2.65862,-0.65215 4.62867,-4.17047 7.04978,-6.7194 3.70064,2.2697 3.86057,4.28353 0.75635,7.44876 -5.7364,5.84912 -19.35361,7.00311 -26.58897,1.89351 z"
   id="path20"
   style="stroke-width:0.995457" />
<path
   fill="#af9f88"
   opacity="1"
   stroke="none"
   d="m 247.51485,137.6741 c -1.07544,-0.77783 -2.78877,-1.80712 -3.19539,-3.22028 -0.56245,-1.95484 -0.14118,-4.19869 -0.14118,-6.91173 4.59414,-0.34131 8.93061,-0.57422 13.24678,-1.01178 3.59013,-0.36398 7.36023,-0.66045 8.13952,-5.84892 1.13056,1.21349 3.3103,3.06482 3.03187,4.388 -0.33857,1.60887 -2.58542,3.64142 -4.29225,3.9683 -5.38923,1.03211 -10.91183,1.35314 -16.84445,1.99958 0,2.0506 0,4.13239 0.0551,6.63683 z"
   id="path21"
   style="stroke-width:0.995457" />
<path
   fill="#ae9e87"
   opacity="1"
   stroke="none"
   d="m 351.27218,357.36671 c 8.0051,-3.0021 13.21366,-8.20038 14.24112,-17.50148 0.88197,0.83738 2.33733,2.03096 2.47078,3.36005 0.54311,5.40838 -7.554,14.9142 -12.91981,15.34384 -1.19539,0.0958 -2.44885,-0.54886 -3.79209,-1.20241 z"
   id="path22"
   style="stroke-width:0.995457" />
<path
   fill="#b1a08a"
   opacity="1"
   stroke="none"
   d="m 291.80548,369.62779 c -3.63122,4.8e-4 -2.77249,-1.66705 -1.52526,-3.63434 2.90419,-4.58088 5.72609,-9.21495 8.72814,-14.16852 3.41513,1.45659 1.94783,3.84789 0.68683,5.90041 -2.42741,3.95107 -5.10495,7.74528 -7.88971,11.90245 z"
   id="path23"
   style="stroke-width:0.995457" />
<path
   fill="#ab9a83"
   opacity="1"
   stroke="none"
   d="m 338.55421,332.39059 c -2.86412,-1.22618 -2.35066,-2.75978 -0.47045,-4.75541 2.56142,-2.71867 4.83278,-5.71642 7.44577,-8.89037 3.71666,2.49556 1.46028,4.91254 -0.44504,7.09123 -1.9547,2.23516 -4.23444,4.1801 -6.53028,6.55455 z"
   id="path24"
   style="stroke-width:0.995457" />
<path
   fill="#ae9d86"
   opacity="1"
   stroke="none"
   d="m 349.21129,344.48165 c -1.00281,-0.51425 -1.90711,-1.37449 -2.44786,-1.8889 2.99917,-4.36485 5.75211,-8.37135 8.61405,-12.72686 3.80357,1.86761 1.94331,4.44505 0.32412,6.67783 -1.9384,2.67295 -4.24479,5.07345 -6.49031,7.93793 z"
   id="path25"
   style="stroke-width:0.995457" />
<path
   fill="#4e1a01"
   opacity="1"
   stroke="none"
   d="m 322.70098,272.13495 c -1.69156,5.75554 -4.54849,9.9893 -10.64806,11.55561 -14.70878,1.93534 -19.57804,-12.79134 -14.41778,-21.34054 3.17769,-5.26458 8.90249,-7.95422 14.70219,-6.63712 5.82304,1.32234 10.09009,6.68289 10.32539,12.99354 0.0371,0.99664 0.007,1.99584 0.0382,3.42851 m -15.88103,-8.21862 c 1.91055,1.40023 3.71923,3.02792 5.82552,3.99122 0.37967,0.17364 2.9165,-2.48824 2.79101,-3.65855 -0.16415,-1.53058 -1.7038,-3.47985 -3.1559,-4.17757 -2.73251,-1.31293 -4.64689,0.20594 -5.46063,3.8449 z"
   id="path26"
   style="stroke-width:0.995457" />
<path
   fill="#4f1b01"
   opacity="1"
   stroke="none"
   d="m 264.89403,184.59955 c 8.09567,3.67402 10.78789,7.86031 10.26456,15.44789 -0.39509,5.72833 -3.81767,9.7889 -9.8354,11.66871 -6.11246,1.90943 -12.43144,-0.0168 -16.38288,-4.99414 -3.30781,-4.16657 -3.74801,-10.67505 -1.04549,-15.45901 3.09062,-5.47102 9.36613,-8.01419 16.99921,-6.66345 m -6.11996,7.96725 c 0.0358,4.87428 3.19089,8.13503 7.69118,7.98404 3.57743,-0.12004 4.84947,-2.21446 4.68665,-5.53508 -0.20588,-4.19889 -3.4483,-7.16216 -7.57407,-6.33893 -1.63786,0.32679 -2.995,2.09016 -4.80376,3.88997 z"
   id="path27"
   style="stroke-width:0.995457" />
<path
   fill="#ef8e55"
   opacity="1"
   stroke="none"
   d="m 258.77464,171.16631 c 4.08723,0.28201 7.78953,0.4595 11.4938,0.53027 4.97179,0.0949 9.54689,1.24253 12.2349,5.84645 0.80414,1.3773 1.00904,4.71263 0.406,5.02632 -1.77363,0.92262 -4.1336,1.17706 -6.18349,0.95019 -2.46457,-0.27276 -4.80858,-1.51868 -7.27172,-1.97241 -4.79374,-0.88306 -9.84124,-0.87722 -14.40027,-2.40649 -5.14732,-1.72658 -9.49728,-0.71077 -14.22208,1.07319 -1.71218,0.64643 -4.04022,-0.37258 -6.08723,-0.63164 0.80048,-1.77212 1.20479,-3.93193 2.4686,-5.25062 6.15466,-6.42186 13.39113,-6.93511 21.56149,-3.16526 z"
   id="path28"
   style="stroke-width:0.995457" />
<path
   fill="#521d03"
   opacity="1"
   stroke="none"
   d="m 243.56085,269.40661 c -1.62473,-2.67802 -3.24419,-4.99375 -4.27248,-7.55212 -0.4253,-1.05817 0.41632,-2.63631 0.68176,-3.97794 1.16181,0.6466 2.46927,1.12029 3.459,1.97122 3.39906,2.92247 6.23133,7.03455 10.11909,8.74452 6.56819,2.88895 13.28344,-2.3097 13.79172,-9.62281 0.023,-0.33121 -0.0937,-0.71607 0.0352,-0.98904 0.93477,-1.98122 1.91593,-3.94009 2.88243,-5.90605 1.24123,2.28032 3.60902,4.60966 3.51434,6.83187 -0.29476,6.91777 -3.67638,12.45936 -10.22046,15.18224 -7.44147,3.09624 -14.17894,1.68497 -19.99055,-4.68189 z"
   id="path29"
   style="stroke-width:0.995457" />
<path
   fill="#501c02"
   opacity="1"
   stroke="none"
   d="m 212.80159,207.56126 c 7.54323,1.02644 11.35945,5.38292 10.82562,11.89839 -0.47083,5.74661 -5.13395,9.51947 -11.3829,9.20973 -5.17126,-0.25633 -8.73708,-3.98862 -9.35533,-9.79216 -0.574,-5.38792 3.14445,-9.80737 9.91261,-11.31596 m -2.09747,8.60142 c -0.077,4.58215 2.86464,5.73123 6.49003,5.19302 3.28797,-0.48808 4.12459,-3.39597 3.20318,-6.07562 -0.51537,-1.49885 -2.8288,-3.54222 -4.03482,-3.35762 -1.99817,0.30585 -3.75645,2.21197 -5.65839,4.24022 z"
   id="path30"
   style="stroke-width:0.995457" />
<path
   fill="#501b01"
   opacity="1"
   stroke="none"
   d="m 287.54119,290.52993 c 3.38601,3.64084 5.58816,7.23781 2.97279,12.1252 -2.28542,4.27078 -5.92879,5.88773 -10.20632,4.82575 -2.4024,-0.59646 -4.38316,-2.92693 -6.81503,-4.68786 -0.70287,-8.40567 1.1385,-12.19935 6.71742,-13.22258 2.21136,-0.4056 4.65976,0.50845 7.33114,0.95949 m -8.86605,6.99192 c 2.08901,1.65476 3.99409,1.65825 5.03068,-1.03758 0.25536,-0.6642 -0.58992,-2.49611 -1.18002,-2.62581 -2.22608,-0.48924 -4.40138,-0.28378 -3.85066,3.66339 z"
   id="path31"
   style="stroke-width:0.995457" />
<path
   fill="#4f1b01"
   opacity="1"
   stroke="none"
   d="m 312.43619,227.76406 c -5.63311,7.52281 -10.95259,8.8072 -15.77656,4.21275 -3.16675,-3.0161 -3.8147,-6.57198 -2.0066,-10.41767 1.61886,-3.44317 7.5368,-5.87899 11.60178,-4.90357 3.96541,0.95155 6.18413,3.60985 6.48798,7.75609 0.0721,0.98463 -0.11007,1.98825 -0.3066,3.3524 m -9.23913,0.12343 c 1.46586,-0.57517 2.9317,-1.15037 4.39755,-1.72552 -0.96858,-0.84841 -1.93715,-1.69683 -2.90574,-2.54523 -0.63902,1.22426 -1.27805,2.44852 -1.49181,4.27075 z"
   id="path32"
   style="stroke-width:0.995457" />
<path
   fill="#511c02"
   opacity="1"
   stroke="none"
   d="m 226.36016,233.06669 c 7.23697,-3.16386 14.32985,-0.15582 16.58739,6.98763 0.44739,1.41574 9.9e-4,4.0401 -0.98346,4.73773 -0.9762,0.69171 -3.15341,-0.33889 -4.79979,-0.63701 -0.13142,-0.0238 -0.22915,-0.2282 -0.34592,-0.34521 -6.5654,-6.57829 -6.51543,-6.55771 -10.18251,2.56247 -0.48052,1.19507 -1.78521,2.0518 -2.70819,3.06522 -0.95097,-1.04327 -2.27908,-1.9284 -2.78416,-3.1586 -1.70767,-4.15897 0.33759,-9.26907 5.21664,-13.21223 z"
   id="path33"
   style="stroke-width:0.995457" />
<path
   fill="#511d03"
   opacity="1"
   stroke="none"
   d="m 257.34886,234.72565 c 2.45563,-4.00725 4.34176,-8.23711 7.46351,-11.08312 3.87511,-3.53284 8.05145,-2.58245 11.04679,1.69927 1.88022,2.68768 3.44558,5.69461 4.57192,8.77497 0.39152,1.07073 -0.9603,2.79233 -1.51589,4.21666 -1.35965,-0.63167 -2.85829,-1.07687 -4.02624,-1.96575 -0.68835,-0.52386 -0.66625,-1.91713 -1.28851,-2.62982 -1.60184,-1.83473 -3.38466,-3.50817 -5.09514,-5.24605 -1.76518,2.24864 -3.57171,4.46581 -5.2802,6.75763 -1.03133,1.38351 -1.91038,2.8829 -2.85788,4.33021 -1.01321,-1.48754 -2.02641,-2.97507 -3.01836,-4.854 z"
   id="path34"
   style="stroke-width:0.995457" />
<path
   fill="#b45820"
   opacity="1"
   stroke="none"
   d="m 222.94028,199.34638 c -3.74935,-3.36529 -5.67576,-6.95957 -3.30573,-11.59507 0.4492,-0.87861 1.69222,-1.95304 2.4706,-1.87916 0.7891,0.075 1.83803,1.34928 2.1072,2.29233 0.89902,3.15023 1.67555,6.36044 2.1609,9.59941 0.41137,2.7452 -0.92024,3.29438 -3.43297,1.58249 z"
   id="path35"
   style="stroke-width:0.995457" />
<path
   fill="#ef8e55"
   opacity="1"
   stroke="none"
   d="m 323.64107,227.60796 c -0.67683,1.87579 -1.50353,3.41587 -2.33027,4.95595 -1.73768,-1.11288 -4.32524,-1.86454 -4.98014,-3.43767 -0.68991,-1.65727 0.46646,-4.09935 0.81615,-6.19854 2.11479,1.44817 4.22958,2.89635 6.49426,4.68026 z"
   id="path36"
   style="stroke-width:0.995457" />
<path
   fill="#ef8e55"
   opacity="1"
   stroke="none"
   d="m 292.97981,192.20906 c -1.2475,-0.39842 -2.60606,-0.57907 -2.94266,-1.26887 -0.885,-1.81364 -1.3253,-3.84886 -1.94271,-5.79579 2.20636,0.58258 4.85896,0.58566 6.51263,1.88594 2.37611,1.86832 1.69948,4.06402 -1.62726,5.17872 z"
   id="path37"
   style="stroke-width:0.995457" />
<path
   fill="#4e1a01"
   opacity="1"
   stroke="none"
   d="m 242.68692,299.49576 c 7.85011,-1.93064 14.4001,1.04349 17.14433,7.47883 2.601,6.09936 0.67461,12.95022 -4.71674,16.77423 -5.92173,4.20023 -13.57006,3.27729 -18.22626,-2.1993 -4.87184,-5.73022 -4.52221,-13.5652 0.97889,-18.84448 1.28627,-1.23438 2.95933,-2.05718 4.81978,-3.20928 m 11.3202,7.98573 c -0.64633,-0.4649 -1.40585,-1.42476 -1.91844,-1.30502 -1.77711,0.41503 -3.46838,1.20532 -5.1923,1.85286 0.45592,0.94709 0.88262,2.68031 1.37305,2.69891 1.70553,0.0647 3.45873,-0.37161 5.13286,-0.83985 0.37756,-0.10562 0.50887,-1.11012 0.60483,-2.4069 z"
   id="path38"
   style="stroke-width:0.995457" />
<path
   fill="#4f1b01"
   opacity="1"
   stroke="none"
   d="m 185.55577,266.31444 c 5.37636,-6.12281 10.2362,-7.18592 17.40919,-4.06847 4.51339,1.96162 7.35322,7.78288 6.74466,13.82583 -0.52779,5.24101 -5.10703,9.77202 -11.20998,11.0742 -5.33534,1.13835 -9.40323,-1.20463 -12.4406,-5.25274 -3.59084,-4.78575 -4.12785,-10.00623 -0.50327,-15.57882 m 17.9972,2.10388 c -1.31689,-1.43709 -2.43106,-3.21606 -4.02707,-4.18246 -0.94986,-0.57517 -2.80518,-0.18496 -3.96695,0.37653 -0.66036,0.31915 -1.25022,2.01875 -1.00129,2.82078 1.28918,4.15373 5.70976,4.91777 8.99531,0.98515 z"
   id="path39"
   style="stroke-width:0.995457" />
<path
   fill="#bf6c35"
   opacity="1"
   stroke="none"
   d="m 177.91128,244.5368 c -6.192,-1.27087 -3.82721,-6.44026 -4.38071,-9.7591 -0.37053,-2.22187 1.53602,-5.38721 3.30325,-7.301 3.60946,-3.90879 9.55752,-5.84726 8.86103,-12.92515 5.16127,1.54576 4.57402,5.04403 3.94258,7.97003 -0.46623,2.16041 -1.69725,4.53609 -3.3175,5.97867 -3.39448,3.02215 -4.65872,6.402 -4.52459,10.94569 0.0489,1.65548 -2.25077,3.38172 -3.88406,5.09086 z"
   id="path40"
   style="stroke-width:0.995457" />
<path
   fill="#bf6c35"
   opacity="1"
   stroke="none"
   d="m 263.44468,332.98945 c -2.21832,-0.29077 -4.07543,-0.75388 -5.93255,-1.21695 0.73574,-1.70623 1.08117,-3.78923 2.27565,-5.05259 4.8516,-5.13144 15.132,-6.92049 20.91408,-3.41126 1.46098,0.88672 2.93122,3.96289 2.47996,5.43136 -1.1638,3.7869 -4.79584,4.50391 -8.06688,3.2686 -4.0619,-1.53402 -7.64102,-0.87462 -11.67026,0.98084 z"
   id="path41"
   style="stroke-width:0.995457" />
<path
   fill="#e8decb"
   opacity="1"
   stroke="none"
   d="m 197.14711,375.47005 c -6.28616,0.61359 -9.3906,-1.50688 -9.98333,-6.42864 -0.61467,-5.10412 3.87592,-12.76275 7.97459,-11.95877 3.48859,0.68435 6.96968,3.85962 9.41419,6.81203 2.27921,2.75273 0.80709,6.03726 -2.09881,8.17655 -1.58642,1.16794 -3.28426,2.18132 -5.30664,3.39883 z"
   id="path42"
   style="stroke-width:0.995457" />
<path
   fill="#e7deca"
   opacity="1"
   stroke="none"
   d="m 246.1467,385.65659 c -5.69676,1.33607 -8.89798,-0.30687 -10.34611,-4.99806 -1.44446,-4.67927 1.26745,-13.56304 4.62343,-13.30893 3.90191,0.2955 7.97511,2.44413 11.32014,4.75488 2.62563,1.81381 1.77875,5.12533 -0.0828,7.56722 -1.57454,2.06548 -3.43335,3.90971 -5.51472,5.98489 z"
   id="path43"
   style="stroke-width:0.995457" />
<path
   fill="#7f3609"
   opacity="1"
   stroke="none"
   d="m 306.82429,263.53662 c 0.8094,-3.25925 2.72378,-4.77812 5.45629,-3.46519 1.45209,0.69772 2.99175,2.64699 3.1559,4.17757 0.12549,1.17031 -2.41134,3.83219 -2.79101,3.65855 -2.10629,-0.9633 -3.91497,-2.59099 -5.82118,-4.37093 z"
   id="path44"
   style="stroke-width:0.995457" />
<path
   fill="#7f3609"
   opacity="1"
   stroke="none"
   d="m 258.93598,192.22155 c 1.64685,-1.45456 3.00399,-3.21793 4.64185,-3.54472 4.12577,-0.82323 7.36819,2.14004 7.57407,6.33893 0.16282,3.32062 -1.10922,5.41504 -4.68665,5.53508 -4.50029,0.15099 -7.65532,-3.10976 -7.52927,-8.32929 z"
   id="path45"
   style="stroke-width:0.995457" />
<path
   fill="#7f3609"
   opacity="1"
   stroke="none"
   d="m 210.72541,215.7645 c 1.88065,-1.63007 3.63893,-3.53619 5.6371,-3.84204 1.20602,-0.1846 3.51945,1.85877 4.03482,3.35762 0.92141,2.67965 0.0848,5.58754 -3.20318,6.07562 -3.62539,0.53821 -6.56695,-0.61087 -6.46874,-5.5912 z"
   id="path46"
   style="stroke-width:0.995457" />
<path
   fill="#7f3609"
   opacity="1"
   stroke="none"
   d="m 278.49693,297.18285 c -0.37251,-3.60817 1.80279,-3.81363 4.02887,-3.32439 0.5901,0.1297 1.43538,1.96161 1.18002,2.62581 -1.03659,2.69583 -2.94167,2.69234 -5.20889,0.69858 z"
   id="path47"
   style="stroke-width:0.995457" />
<path
   fill="#7d3408"
   opacity="1"
   stroke="none"
   d="m 302.98443,227.5885 c 0.42639,-1.52324 1.06542,-2.7475 1.70444,-3.97176 0.96859,0.8484 1.93716,1.69682 2.90574,2.54523 -1.46585,0.57515 -2.93169,1.15035 -4.61018,1.42653 z"
   id="path48"
   style="stroke-width:0.995457" />
<path
   fill="#7d3408"
   opacity="1"
   stroke="none"
   d="m 254.08147,307.83453 c -0.17031,0.94374 -0.30162,1.94824 -0.67918,2.05386 -1.67413,0.46824 -3.42733,0.90459 -5.13286,0.83985 -0.49043,-0.0186 -0.91713,-1.75182 -1.37305,-2.69891 1.72392,-0.64754 3.41519,-1.43783 5.1923,-1.85286 0.51259,-0.11974 1.27211,0.84012 1.99279,1.65806 z"
   id="path49"
   style="stroke-width:0.995457" />
<path
   fill="#7d3408"
   opacity="1"
   stroke="none"
   d="m 203.59087,268.78126 c -3.32345,3.56968 -7.74403,2.80564 -9.03321,-1.34809 -0.24893,-0.80203 0.34093,-2.50163 1.00129,-2.82078 1.16177,-0.56149 3.01709,-0.9517 3.96695,-0.37653 1.59601,0.9664 2.71018,2.74537 4.06497,4.5454 z"
   id="path50"
   style="stroke-width:0.995457" />
</svg>
